<?xml version="1.0" encoding="UTF-8"?>
<svg width="70px" height="70px" viewBox="0 0 70 70" version="1.1" xmlns="http://www.w3.org/2000/svg" xmlns:xlink="http://www.w3.org/1999/xlink">
    <!-- Generator: Sketch 61.2 (89653) - https://sketch.com -->
    <title>Group 5</title>
    <desc>Created with Sketch.</desc>
    <defs>
        <linearGradient x1="-0.0010101199%" y1="50.0034488%" x2="99.9970984%" y2="50.0034488%" id="linearGradient-1">
            <stop stop-color="#61DB99" offset="0%"></stop>
            <stop stop-color="#009E74" offset="100%"></stop>
        </linearGradient>
        <linearGradient x1="54.5178915%" y1="56.8956186%" x2="49.2719193%" y2="48.2944108%" id="linearGradient-2">
            <stop stop-color="#009E74" stop-opacity="0" offset="0%"></stop>
            <stop stop-color="#009E74" offset="100%"></stop>
        </linearGradient>
        <linearGradient x1="-0.00111397665%" y1="50.0035133%" x2="99.9969948%" y2="50.0035133%" id="linearGradient-3">
            <stop stop-color="#61DB99" offset="0%"></stop>
            <stop stop-color="#009E74" offset="100%"></stop>
        </linearGradient>
        <linearGradient x1="53.8962272%" y1="57.9336324%" x2="50.4381354%" y2="50.4625114%" id="linearGradient-4">
            <stop stop-color="#009E74" stop-opacity="0" offset="0%"></stop>
            <stop stop-color="#009E74" offset="100%"></stop>
        </linearGradient>
        <linearGradient x1="-0.000874025804%" y1="50.0036462%" x2="99.9972347%" y2="50.0036462%" id="linearGradient-5">
            <stop stop-color="#61DB99" offset="0%"></stop>
            <stop stop-color="#009E74" offset="100%"></stop>
        </linearGradient>
        <linearGradient x1="57.5227699%" y1="62.9342595%" x2="41.441749%" y2="34.2107503%" id="linearGradient-6">
            <stop stop-color="#009E74" stop-opacity="0" offset="0%"></stop>
            <stop stop-color="#009E74" offset="100%"></stop>
        </linearGradient>
        <linearGradient x1="-0.000719742101%" y1="50.0040188%" x2="99.9973889%" y2="50.0040188%" id="linearGradient-7">
            <stop stop-color="#A7F3CE" offset="0%"></stop>
            <stop stop-color="#61DB99" offset="100%"></stop>
        </linearGradient>
        <linearGradient x1="22.1727204%" y1="36.1845452%" x2="89.9589577%" y2="69.8429908%" id="linearGradient-8">
            <stop stop-color="#61DB99" offset="0%"></stop>
            <stop stop-color="#009E74" offset="100%"></stop>
        </linearGradient>
        <linearGradient x1="20.2388242%" y1="20.2544132%" x2="92.7293704%" y2="92.7449594%" id="linearGradient-9">
            <stop stop-color="#A7F3CE" offset="0%"></stop>
            <stop stop-color="#61DB99" offset="100%"></stop>
        </linearGradient>
        <linearGradient x1="22.911419%" y1="44.1186362%" x2="88.90443%" y2="58.4559662%" id="linearGradient-10">
            <stop stop-color="#A7F3CE" offset="0%"></stop>
            <stop stop-color="#61DB99" offset="100%"></stop>
        </linearGradient>
        <linearGradient x1="22.8960589%" y1="44.1162061%" x2="88.8890698%" y2="58.4534984%" id="linearGradient-11">
            <stop stop-color="#A7F3CE" offset="0%"></stop>
            <stop stop-color="#61DB99" offset="100%"></stop>
        </linearGradient>
        <linearGradient x1="-5.12501001e-05%" y1="50.0045548%" x2="99.9979295%" y2="50.0045548%" id="linearGradient-12">
            <stop stop-color="#FFB92D" offset="0%"></stop>
            <stop stop-color="#F59500" offset="100%"></stop>
        </linearGradient>
        <radialGradient cx="52.2498908%" cy="-23.8111294%" fx="52.2498908%" fy="-23.8111294%" r="124.930601%" gradientTransform="translate(0.522499,-0.238111),scale(0.410256,1.000000),rotate(180.000000),translate(-0.522499,0.238111)" id="radialGradient-13">
            <stop stop-color="#BE3F45" offset="0%"></stop>
            <stop stop-color="#C14046" offset="31.7%"></stop>
            <stop stop-color="#CA4148" offset="53.8%"></stop>
            <stop stop-color="#D9444B" offset="72.9%"></stop>
            <stop stop-color="#EF4950" offset="90.2%"></stop>
            <stop stop-color="#FF4C54" offset="100%"></stop>
        </radialGradient>
    </defs>
    <g id="Page-1" stroke="none" stroke-width="1" fill="none" fill-rule="evenodd">
        <g id="Expand" transform="translate(-32.000000, -351.000000)">
            <g id="Group-5" transform="translate(32.000000, 351.000000)">
                <circle id="Oval-Copy-2" fill="#EBEBEB" cx="35" cy="35" r="35"></circle>
                <g id="cash-back" transform="translate(17.000000, 17.000000)" fill-rule="nonzero">
                    <path d="M29.7272407,24.975 L10.0477593,24.975 C9.60717057,24.975 9.25,24.6381235 9.25,24.2225686 L9.25,15.5524314 C9.25,15.1368765 9.60717057,14.8 10.0477593,14.8 L29.7272407,14.8 C30.1678294,14.8 30.525,15.1368765 30.525,15.5524314 L30.525,24.2225686 C30.525,24.6380542 30.1679763,24.975 29.7272407,24.975 Z" id="Path" fill="url(#linearGradient-1)"></path>
                    <path d="M9.27166228,23.9097323 L10.4011114,24.975 L29.7272407,24.975 C30.1678294,24.975 30.525,24.6381258 30.525,24.2225737 L30.525,15.5524955 C30.525,15.1369435 30.1678294,14.8 29.7272407,14.8 L10.0477593,14.8 C9.60717057,14.8 9.25,15.1368742 9.25,15.5524955 L9.25,23.8659608 L9.27166228,23.9097323 Z" id="Path" fill="url(#linearGradient-2)"></path>
                    <path d="M28.8022407,24.05 L9.12275926,24.05 C8.68217057,24.05 8.325,23.7131258 8.325,23.2975737 L8.325,14.6274263 C8.325,14.2118742 8.68217057,13.875 9.12275926,13.875 L28.8022407,13.875 C29.2428294,13.875 29.6,14.2118742 29.6,14.6274263 L29.6,23.2975045 C29.6,23.7131258 29.2428294,24.05 28.8022407,24.05 Z" id="Path" fill="url(#linearGradient-3)"></path>
                    <path d="M8.34651556,22.9847395 L9.47597248,24.05 L28.8022352,24.05 C29.242827,24.05 29.6,23.7131281 29.6,23.2975789 L29.6,14.6274904 C29.6,14.2119412 29.242827,13.875 28.8022352,13.875 L9.12276477,13.875 C8.68217303,13.875 8.325,14.2118719 8.325,14.6274904 L8.325,22.9408991 L8.34651556,22.9847395 Z" id="Path" fill="url(#linearGradient-4)"></path>
                    <path d="M27.8772407,22.2 L8.19775926,22.2 C7.75717057,22.2 7.4,21.8631235 7.4,21.4475686 L7.4,12.7774314 C7.4,12.3618765 7.75717057,12.025 8.19775926,12.025 L27.8772407,12.025 C28.3178294,12.025 28.675,12.3618765 28.675,12.7774314 L28.675,21.4475686 C28.675,21.8631235 28.3178294,22.2 27.8772407,22.2 Z" id="Path" fill="url(#linearGradient-5)"></path>
                    <path d="M7.42166228,21.134725 L8.55111139,22.2 L27.8772407,22.2 C28.3178294,22.2 28.675,21.8631235 28.675,21.4475686 L28.675,12.7774314 C28.675,12.3618765 28.3178294,12.025 27.8772407,12.025 L8.19775926,12.025 C7.75717057,12.025 7.4,12.3618765 7.4,12.7774314 L7.4,21.0909533 L7.42166228,21.134725 Z" id="Path" fill="url(#linearGradient-6)"></path>
                    <path d="M26.9522407,21.275 L7.27275926,21.275 C6.83217057,21.275 6.475,20.9381235 6.475,20.5225686 L6.475,11.8524314 C6.475,11.4368765 6.83217057,11.1 7.27275926,11.1 L26.9522407,11.1 C27.3928294,11.1 27.75,11.4368765 27.75,11.8524314 L27.75,20.5224994 C27.75,20.9380542 27.3929029,21.275 26.9522407,21.275 Z" id="Path" fill="url(#linearGradient-7)"></path>
                    <path d="M26.2903191,13.4925506 C25.7288542,13.4621644 25.2699544,12.9824641 25.2408133,12.3970824 C25.2343851,12.2675685 25.2488842,12.1426722 25.2803823,12.025 L25.2803823,12.025 L8.94468915,12.025 L8.94468915,12.025 C8.97618718,12.1425232 8.9907577,12.267494 8.98425811,12.3970079 C8.95504565,12.9824641 8.49614576,13.4621644 7.93475229,13.4924761 C7.74269286,13.5029028 7.56077566,13.4621644 7.4,13.382475 L7.4,13.382475 L7.4,19.9174505 L7.4,19.9174505 C7.56091851,19.8377612 7.74297856,19.7970228 7.93510941,19.8074494 C8.49657431,19.8380591 8.95525992,20.3179083 8.98425811,20.9033645 C8.99061485,21.0327294 8.97618718,21.1574768 8.94468915,21.275 L8.94468915,21.275 L25.2803108,21.275 L25.2803108,21.275 C25.2488842,21.1575513 25.2343851,21.0327294 25.2407419,20.9033645 C25.2698115,20.3179083 25.7284971,19.8380591 26.2898906,19.8074494 C26.4820929,19.7969483 26.6641529,19.8376867 26.825,19.9174505 L26.825,19.9174505 L26.825,13.382475 L26.825,13.382475 C26.6642958,13.4622388 26.4823071,13.5029028 26.2903191,13.4925506 Z" id="Path" fill="url(#linearGradient-8)"></path>
                    <circle id="Oval" fill="url(#linearGradient-9)" cx="16.65" cy="16.65" r="2.775"></circle>
                    <rect id="Rectangle" fill="url(#linearGradient-10)" x="9.25" y="12.95" width="3.7" height="1"></rect>
                    <rect id="Rectangle" fill="url(#linearGradient-11)" x="20.35" y="18.5" width="3.7" height="1"></rect>
                    <path d="M35.9276595,8.16565903 C35.1748608,7.8874445 34.3508966,8.20501585 33.9592319,8.87980909 C32.7244851,6.82106558 31.0943662,5.01983023 29.1308818,3.56443558 C25.9845525,1.23254399 22.2532705,0 18.3403311,0 C14.4273917,0 10.696037,1.23254399 7.5497805,3.56443558 C4.46829256,5.84830597 2.20640729,8.98334102 1.00851529,12.6303084 C0.724507524,13.4950571 1.18828269,14.4286802 2.04437675,14.7155591 C2.90076158,15.0025848 3.82482269,14.5339743 4.10875777,13.6692257 C5.09206289,10.6755374 6.95014392,8.10119021 9.48215279,6.22454542 C12.0641738,4.31082005 15.1271979,3.29921761 18.3403311,3.29921761 C21.5534643,3.29921761 24.6164158,4.31082005 27.1985095,6.22461885 C28.706433,7.34217631 29.9751997,8.70732929 30.9625756,10.2610426 C30.2112307,10.1470106 29.4589409,10.5772922 29.1877269,11.3260998 C28.8776954,12.1817435 29.3131934,13.1291708 30.1602736,13.4422631 L33.5608796,14.6991114 C33.5690211,14.7021219 33.577308,14.7041045 33.5854495,14.7069681 C33.6140175,14.7170276 33.6428035,14.7261325 33.6718803,14.7345766 C33.6874364,14.7390557 33.7029198,14.7436816 33.7184759,14.7477935 C33.7478435,14.7553564 33.7774291,14.7617446 33.8072329,14.7676922 C33.8224255,14.7707027 33.8376182,14.7742272 33.8527381,14.7767971 C33.8843591,14.7821573 33.9161982,14.785902 33.9482554,14.7895 C33.9612673,14.7908951 33.9742792,14.7930979 33.987291,14.7941258 C34.0318513,14.7978706 34.0767022,14.8 34.1217713,14.8 C34.1217713,14.8 34.1217713,14.8 34.121844,14.8 L34.1219167,14.8 C34.1642961,14.8 34.2065302,14.7982378 34.2484008,14.7949335 C34.2584323,14.7941258 34.2683911,14.792437 34.2784226,14.7914825 C34.3106979,14.7883251 34.3429005,14.7849475 34.3748123,14.7798076 C34.3871699,14.7778251 34.3994549,14.774888 34.4118852,14.7726118 C34.4416162,14.7671782 34.4712019,14.7615243 34.5004968,14.7544753 C34.5142356,14.7511711 34.527829,14.7469123 34.5415678,14.7431676 C34.5693361,14.7357515 34.5968864,14.7281151 34.6240732,14.7192304 C34.628144,14.7179087 34.6322148,14.7170276 34.6363582,14.7157059 C34.644427,14.7129891 34.651987,14.7092443 34.6600558,14.7064541 C34.6960384,14.6936778 34.7315848,14.6798736 34.7666223,14.6646742 C34.7816696,14.6582127 34.7966441,14.6516777 34.8113279,14.6447755 C34.8454932,14.628695 34.8790042,14.6112929 34.9120064,14.5928627 C34.922474,14.587062 34.9333778,14.5818487 34.9437001,14.5758277 C34.98339,14.5525513 35.0219167,14.5270722 35.0596439,14.5004182 C35.0744004,14.4899916 35.0884299,14.4789042 35.1026776,14.468037 C35.127829,14.448946 35.1525443,14.4292676 35.1766781,14.408708 C35.189908,14.3974003 35.2029926,14.3860925 35.2158591,14.3743442 C35.2433367,14.3493057 35.269942,14.3231657 35.2957476,14.296218 C35.3028714,14.2887285 35.3105768,14.2816061 35.3175552,14.2739697 C35.3512116,14.2374765 35.3834142,14.1992945 35.4138722,14.1594971 C35.4159802,14.1567069 35.4178702,14.1537698 35.4199783,14.1509796 C35.4470924,14.1150004 35.4728254,14.0775527 35.4971772,14.0390036 C35.5036468,14.0286504 35.5098257,14.0181503 35.5160772,14.0076503 C35.5349044,13.9763704 35.552714,13.9444297 35.5696512,13.9116079 C35.5765569,13.8980974 35.5835354,13.8846602 35.5900777,13.8709294 C35.6048341,13.8401635 35.6184276,13.8087368 35.6314394,13.7767227 C35.6374729,13.7618904 35.6439425,13.7472785 35.6495397,13.7322994 C35.6514297,13.7271595 35.6538286,13.7222399 35.6557186,13.7170266 L36.9000608,10.2820427 C37.2100923,9.4262521 36.774667,8.47875135 35.9276595,8.16565903 Z" id="Path" fill="url(#linearGradient-12)"></path>
                    <path d="M1.07240817,27.9092458 C1.82520384,28.1874586 2.64916472,27.8698892 3.04082782,27.1951002 C4.27556973,29.2538307 5.90568201,31.0550547 7.86915862,32.5104401 C11.0154025,34.842317 14.7467423,36.075 18.659666,36.075 C22.5725897,36.075 26.3039294,34.8423904 29.4501734,32.5104401 C32.531649,30.2265842 34.7935252,27.0916424 35.991485,23.4446246 C36.2754917,22.5798815 35.8117184,21.6462643 34.9556277,21.3593872 C34.0992463,21.0724367 33.1751889,21.5409708 32.891255,22.4057139 C31.9079538,25.3993833 30.0498802,27.9737142 27.5178815,29.8503471 C24.9358709,31.7640604 21.872859,32.7756564 18.6597387,32.7756564 C15.4466184,32.7756564 12.3836792,31.7641338 9.80159586,29.8503471 C8.29367839,28.7327967 7.02491674,27.3676524 6.03754483,25.8139489 C6.78888666,25.9279802 7.54117349,25.4977013 7.81238637,24.7488984 C8.12241665,23.8933336 7.68692043,22.9458388 6.83984357,22.6327485 L3.43925125,21.3759081 C3.43110978,21.3728977 3.42282292,21.3709151 3.41468144,21.3680515 C3.38611359,21.3579921 3.35732766,21.3488872 3.32825096,21.3404432 C3.31269493,21.3359642 3.29721159,21.3313383 3.28165556,21.3272264 C3.25228809,21.3196635 3.22270256,21.3132754 3.19289894,21.3073279 C3.17770637,21.3043174 3.16251379,21.3007929 3.14739391,21.298223 C3.115773,21.2928628 3.08393402,21.2891181 3.05187696,21.2855202 C3.03886514,21.2841251 3.02585332,21.2819223 3.0128415,21.2808943 C2.96828146,21.2771496 2.92343066,21.275 2.87836178,21.275 C2.87836178,21.275 2.87836178,21.275 2.87828909,21.275 L2.8782164,21.275 C2.83583711,21.275 2.79360321,21.2767825 2.75173277,21.2800866 C2.74170131,21.2808943 2.73174254,21.2825831 2.72171108,21.2835377 C2.68943595,21.286695 2.6572335,21.2900726 2.62532183,21.2952125 C2.61296423,21.297195 2.60067933,21.3001321 2.58824904,21.3024083 C2.55851812,21.3078418 2.52893258,21.3134957 2.49963781,21.3205446 C2.48589907,21.3238488 2.47230572,21.3281075 2.45856698,21.3318523 C2.43087142,21.3392684 2.40324856,21.3469047 2.37606185,21.3557893 C2.37199111,21.357111 2.36792038,21.3579921 2.36377695,21.3593138 C2.35570816,21.3620305 2.34814822,21.3657753 2.34007944,21.3685655 C2.30409703,21.3813417 2.26855077,21.3951459 2.23351335,21.4103451 C2.21846616,21.4168067 2.20349166,21.4233416 2.18880793,21.4302437 C2.15464281,21.4463241 2.12113192,21.4637262 2.08812987,21.4821562 C2.07766226,21.4879569 2.06675849,21.4931702 2.05643627,21.4991911 C2.01674658,21.5224673 1.97821995,21.5479463 1.94049294,21.5746001 C1.92573652,21.5850266 1.91170701,21.596114 1.89745943,21.6069811 C1.87230809,21.626072 1.8475929,21.6457503 1.82345924,21.6663097 C1.81022934,21.6776174 1.79714483,21.6889251 1.78427839,21.7006733 C1.75680091,21.7257117 1.73019573,21.7518515 1.70439017,21.778799 C1.69726638,21.7862885 1.68956105,21.7934109 1.68258264,21.8010472 C1.64892637,21.8375402 1.61672393,21.8757219 1.58626609,21.915519 C1.58415803,21.9183092 1.58226804,21.9212463 1.58015998,21.9240365 C1.55304596,21.9600155 1.52731309,21.9974629 1.50296135,22.0360118 C1.49649179,22.046365 1.49031299,22.0568649 1.4840615,22.0673649 C1.46523434,22.0986446 1.44742486,22.1305851 1.43048769,22.1634067 C1.42358197,22.1769172 1.41660357,22.1903542 1.41006131,22.2040849 C1.39530489,22.2348506 1.38171153,22.2662771 1.36869971,22.2982911 C1.36266629,22.3131232 1.35619673,22.3277351 1.35059946,22.3427141 C1.34870948,22.3478539 1.34631065,22.3527735 1.34442067,22.3579868 L0.0999380659,25.7930958 C-0.210092208,26.6486607 0.225331319,27.5962289 1.07240817,27.9092458 Z" id="Path" fill="url(#radialGradient-13)"></path>
                </g>
            </g>
        </g>
    </g>
</svg>